<svg height="24" viewBox="0 0 24 24" width="24" xmlns="http://www.w3.org/2000/svg">
    <defs>
        <linearGradient gradientUnits="objectBoundingBox" id="linear-gradient" x1=".5" x2="0" y1="1" y2=".5">
            <stop offset="0" stop-color="#e9262a"/>
            <stop offset="1" stop-color="#cc0004"/>
        </linearGradient>
        <linearGradient gradientUnits="objectBoundingBox" id="linear-gradient-4" x2="1" y1=".257" y2=".782">
            <stop offset="0" stop-color="#bbbdbf"/>
            <stop offset="1" stop-color="#8b8b8b"/>
        </linearGradient>
        <style>
            .cls-1 {
                fill: url(#linear-gradient)
            }

            .cls-2 {
                fill: url(#linear-gradient-4)
            }
        </style>
    </defs>
    <g id="cinematicket_news" transform="translate(-1058.632 -72.634)">
        <g data-name="Group 9275" id="Group_9275" transform="translate(1060.294 73.395)">
            <path class="cls-1"
                  d="M152.391 26.759l6.479 2.582.258-.1a.09.09 0 0 1-.009-.016.093.093 0 0 1-.037-.088.123.123 0 0 1 .076-.093.336.336 0 0 1 .222-.019.205.205 0 0 1 .1.056.17.17 0 0 1 0 .022l.435-.169a.056.056 0 0 1-.008-.014.1.1 0 0 1-.038-.089.128.128 0 0 1 .077-.094.339.339 0 0 1 .221-.019.2.2 0 0 1 .1.057.132.132 0 0 1 0 .021l.434-.169-.008-.014a.1.1 0 0 1-.037-.089.124.124 0 0 1 .076-.092.333.333 0 0 1 .222-.02.2.2 0 0 1 .1.057.149.149 0 0 1 0 .02l.434-.169a.068.068 0 0 0-.008-.013.1.1 0 0 1-.037-.089.127.127 0 0 1 .076-.093.337.337 0 0 1 .222-.019.2.2 0 0 1 .1.056.138.138 0 0 1 0 .019l.434-.168-.007-.013a.1.1 0 0 1-.038-.088.126.126 0 0 1 .077-.093.325.325 0 0 1 .222-.019.2.2 0 0 1 .1.056v.019l.433-.169-.007-.013a.1.1 0 0 1-.037-.089.128.128 0 0 1 .076-.093.339.339 0 0 1 .222-.019.2.2 0 0 1 .1.056v.018l.434-.168a.073.073 0 0 0-.007-.012.1.1 0 0 1-.037-.089.124.124 0 0 1 .076-.094.339.339 0 0 1 .222-.019.218.218 0 0 1 .1.056v.018l.433-.167s0-.009-.006-.013A.1.1 0 0 1 164.6 27a.126.126 0 0 1 .077-.093.335.335 0 0 1 .222-.02.208.208 0 0 1 .1.056v.018l.22-.085-6.348-2.594z"
                  data-name="Path 5854" id="Path_5854" transform="translate(-152.372 -14.246)"/>
            <path class="cls-1"
                  d="M153.007 16.128l.79-.29v.743l-.79.29zm0-1.272l.79-.29v.742l-.79.29zm0-1.272l.79-.29v.741l-.79.29zm0-1.272l.79-.29v.741l-.79.29zm0-1.271l.79-.291v.742l-.79.29zM157.98 8.2l-4.9 1.845a1.088 1.088 0 0 0-.726 1.011l.019 6.823 6.48-2.476V8.756a.615.615 0 0 0-.632-.6.679.679 0 0 0-.236.044"
                  data-name="Path 5856" id="Path_5856" transform="translate(-152.349 -5.37)"/>
            <path class="cls-1"
                  d="M172.922 30.137a.191.191 0 0 1-.019.129.188.188 0 0 1-.309.058.155.155 0 0 1-.026-.05l-.434.169a.19.19 0 0 1-.02.128.188.188 0 0 1-.309.059.142.142 0 0 1-.026-.049l-.434.168a.2.2 0 0 1-.329.187.151.151 0 0 1-.025-.049l-.434.169a.193.193 0 0 1-.021.126.188.188 0 0 1-.309.059.137.137 0 0 1-.025-.048l-.434.169a.193.193 0 0 1-.021.126.187.187 0 0 1-.308.059.146.146 0 0 1-.025-.048l-.434.168a.2.2 0 0 1-.021.126.188.188 0 0 1-.309.059.145.145 0 0 1-.025-.048l-.434.169a.194.194 0 0 1-.021.125.187.187 0 0 1-.308.059.121.121 0 0 1-.025-.047l-.435.17a.191.191 0 0 1-.02.124.187.187 0 0 1-.309.058.133.133 0 0 1-.024-.047l-.257.1v6.573a.577.577 0 0 0 .8.5l.708-.272a.625.625 0 0 0 .411-.54 2.308 2.308 0 0 1 .029-.253 2.109 2.109 0 0 1 1.813-1.837 1.176 1.176 0 0 1 1.129.922.362.362 0 0 0 .478.223l.5-.192a.734.734 0 0 0 .486-.678v-6.909z"
                  data-name="Path 5858" id="Path_5858" transform="translate(-160.297 -17.42)"/>
            <path class="cls-2"
                  d="M168.866 20.548l6.478 2.583.257-.1a.084.084 0 0 1-.008-.015.1.1 0 0 1-.038-.089.127.127 0 0 1 .076-.094.329.329 0 0 1 .222-.02.2.2 0 0 1 .1.056.133.133 0 0 1 0 .022l.435-.169a.165.165 0 0 1-.009-.015.1.1 0 0 1-.038-.088.129.129 0 0 1 .078-.094.333.333 0 0 1 .221-.019.2.2 0 0 1 .1.056v.021l.435-.169a.073.073 0 0 1-.008-.014.1.1 0 0 1-.038-.089.126.126 0 0 1 .076-.092.329.329 0 0 1 .222-.019.2.2 0 0 1 .1.056.153.153 0 0 1 0 .021l.434-.169s-.006-.009-.007-.014a.1.1 0 0 1-.038-.089.126.126 0 0 1 .077-.093.333.333 0 0 1 .222-.02.208.208 0 0 1 .1.056v.02l.434-.169s-.007-.009-.008-.013a.1.1 0 0 1-.038-.088.126.126 0 0 1 .076-.094.338.338 0 0 1 .222-.019.211.211 0 0 1 .1.056v.019l.434-.169a.114.114 0 0 0-.008-.012.1.1 0 0 1-.038-.088.127.127 0 0 1 .076-.094.335.335 0 0 1 .223-.02.206.206 0 0 1 .1.057v.018l.433-.168a.048.048 0 0 1-.006-.013.1.1 0 0 1-.038-.088.128.128 0 0 1 .076-.094.336.336 0 0 1 .222-.02.2.2 0 0 1 .1.056v.018l.433-.168-.007-.012a.1.1 0 0 1-.036-.089.124.124 0 0 1 .076-.092.332.332 0 0 1 .222-.02.2.2 0 0 1 .1.056v.017l.219-.085-6.347-2.594z"
                  data-name="Path 5860" id="Path_5860" transform="translate(-161.441 -10.826)"/>
            <path class="cls-2"
                  d="M169.482 9.92l.79-.29v.741l-.79.291zm0-1.272l.79-.291V9.1l-.79.29zm0-1.272l.79-.29v.741l-.79.291zm0-1.272l.79-.29v.742l-.79.29zm0-1.273l.79-.29v.742l-.79.29zM174.456 2l-4.906 1.842a1.087 1.087 0 0 0-.725 1.01l.019 6.823 6.479-2.475V2.547a.615.615 0 0 0-.631-.594.675.675 0 0 0-.236.043"
                  data-name="Path 5862" id="Path_5862" transform="translate(-161.418 -1.953)"/>
            <path class="cls-2"
                  d="M189.4 23.928a.194.194 0 0 1-.02.129.187.187 0 0 1-.308.059.137.137 0 0 1-.026-.05l-.434.169a.189.189 0 0 1-.021.128.187.187 0 0 1-.308.059.135.135 0 0 1-.026-.049l-.434.169a.2.2 0 0 1-.021.128.187.187 0 0 1-.308.059.127.127 0 0 1-.026-.049l-.435.169a.189.189 0 0 1-.021.127.187.187 0 0 1-.308.059.137.137 0 0 1-.025-.049l-.434.169a.2.2 0 0 1-.021.127.188.188 0 0 1-.309.059.131.131 0 0 1-.025-.049l-.434.169a.2.2 0 0 1-.021.125.187.187 0 0 1-.308.058.148.148 0 0 1-.025-.047l-.435.169a.189.189 0 0 1-.02.125.187.187 0 0 1-.308.058.134.134 0 0 1-.025-.047l-.435.169a.2.2 0 0 1-.02.125.188.188 0 0 1-.309.058.148.148 0 0 1-.024-.046l-.257.1v6.573a.578.578 0 0 0 .8.5l.708-.272a.626.626 0 0 0 .41-.54 2.158 2.158 0 0 1 .03-.253 2.108 2.108 0 0 1 1.813-1.839 1.175 1.175 0 0 1 1.127.923.362.362 0 0 0 .479.222l.5-.19a.736.736 0 0 0 .486-.679v-6.91z"
                  data-name="Path 5864" id="Path_5864" transform="translate(-169.364 -14.002)"/>
        </g>
        <path d="M0 0H24V24H0z" data-name="Rectangle 2907" fill="none" id="Rectangle_2907" transform="translate(1058.632 72.634)"/>
    </g>
</svg>
