<svg height="40" width="130" xmlns="http://www.w3.org/2000/svg">
    <g fill="#000000">
        <path
            d="M89.021 13.125c1.091 0 1.977-.9 1.977-2.011 0-1.11-.886-2.011-1.977-2.011-1.089 0-1.972.901-1.972 2.011.001 1.111.884 2.011 1.972 2.011M58.521 12.557c1.091 0 1.974-.901 1.974-2.012s-.883-2.012-1.974-2.012-1.974.9-1.974 2.012c0 1.111.884 2.012 1.974 2.012M53.986 12.557c1.09 0 1.973-.901 1.973-2.012s-.882-2.012-1.973-2.012c-1.091 0-1.976.9-1.976 2.012 0 1.111.885 2.012 1.976 2.012M16.944 12.44c1.09 0 1.975-.901 1.975-2.012s-.884-2.011-1.975-2.011c-1.09 0-1.974.9-1.974 2.011s.884 2.012 1.974 2.012M12.408 12.44c1.09 0 1.975-.901 1.975-2.012s-.884-2.011-1.975-2.011-1.974.9-1.974 2.011.883 2.012 1.974 2.012M97.719 32.521c-1.091 0-1.974.9-1.974 2.013 0 1.11.883 2.01 1.974 2.01s1.975-.899 1.975-2.01c-.001-1.113-.884-2.013-1.975-2.013M93.181 32.521c-1.088 0-1.974.9-1.974 2.013 0 1.11.886 2.01 1.974 2.01 1.092 0 1.975-.899 1.975-2.01-.001-1.113-.884-2.013-1.975-2.013M47.75 32.521c-1.092 0-1.976.9-1.976 2.013 0 1.11.884 2.01 1.976 2.01 1.089 0 1.973-.899 1.973-2.01 0-1.113-.884-2.013-1.973-2.013M43.212 32.521c-1.09 0-1.975.9-1.975 2.013 0 1.11.885 2.01 1.975 2.01s1.974-.899 1.974-2.01c.001-1.113-.883-2.013-1.974-2.013"/>
        <path
            d="M127.975 15.272a1.682 1.682 0 0 0-1.677 1.686l-.01 5.763c0 1.814-1.559 3.395-3.346 3.299-8.335-.45-16.016-4.644-21.113-10.733l-2.023-.003a1.68 1.68 0 0 0-1.677 1.686l-.012 5.805c0 1.829-1.475 3.317-3.287 3.317-1.811 0-3.285-1.488-3.285-3.314l.009-5.802a1.68 1.68 0 0 0-1.672-1.692l-2.022-.002-.002 1a7.025 7.025 0 0 0-3.418-.887c-3.916 0-7.104 3.216-7.104 7.169 0 .052.006.105.007.158-.021 1.886-1.608 3.399-3.509 3.271-1.746-.118-3.063-1.661-3.063-3.427V6.17a.975.975 0 0 0-.972-.979h-1.754a.976.976 0 0 0-.972.979v16.325c0 3.942 3.196 7.299 7.105 7.234 1.998-.034 3.789-.927 5.043-2.319 1.303 1.424 3.154 2.32 5.219 2.32 2.045 0 3.885-.882 5.182-2.279 1.279 1.449 3.138 2.37 5.209 2.37 3.854 0 6.986-3.162 6.986-7.045l.003-2.241c7.013 6.308 18.501 10.37 23.07 8.972V29.5a7.04 7.04 0 0 0 5.096-6.776l.014-7.45-2.025-.002zM84.439 25.999c-1.825 0-3.314-1.456-3.398-3.277l.001-.04h-.003c-.002-.041-.006-.078-.006-.119 0-1.895 1.527-3.438 3.406-3.438 1.877 0 3.407 1.544 3.407 3.438.001 1.895-1.53 3.436-3.407 3.436M59.046 16.958l-.009 5.778c0 1.827-1.477 3.317-3.288 3.317-1.813 0-3.287-1.49-3.287-3.315l.009-5.771c0-.698-.421-1.3-1.02-1.558a1.671 1.671 0 0 0-.653-.134l-2.023-.002-.012 7.463c0 1.903-1.543 3.49-3.486 3.36-1.62-.109-2.437-1.161-2.89-2.164-.184-.408-.243-1.176-.347-1.819-.127-.793-.49-1.77-1.424-3.008l-4.005-4.807 6.526-6.203a.93.93 0 0 0 .04-1.307l-1.218-1.305a.91.91 0 0 0-1.295-.04l-7.795 7.408.014.016a1.826 1.826 0 0 0-.121 2.489c4.255 5.231 5.7 5.995 5.712 7.463-.003 1.695-1.247 3.001-2.838 3.206-2.005.26-3.72-1.318-3.72-3.287l.01-5.758a1.683 1.683 0 0 0-1.672-1.691l-2.023-.002v.001l-.002-.001C23.13 21.378 15.45 25.569 7.113 26.02c-1.786.096-3.346-1.484-3.346-3.299l-.009-5.806a1.682 1.682 0 0 0-1.677-1.686l-2.024.003.013 7.491a7.04 7.04 0 0 0 5.098 6.776v.007c4.566 1.396 16.042-2.657 23.053-8.958l-.004 2.187c0 3.886 2.992 6.95 6.988 7.038 2.019.043 3.882-.916 5.075-2.278 1.38 1.583 3.274 2.292 5.313 2.286 1.986-.006 3.766-.909 5.019-2.286 1.279 1.401 3.104 2.287 5.136 2.287 3.852 0 6.985-3.16 6.985-7.045l.013-7.463-2.023-.002a1.682 1.682 0 0 0-1.677 1.686"/>
    </g>
</svg>
